HIERARCHY
ROOT Hips
{
	OFFSET -3.958830 18.904000 13.208200
	CHANNELS 6 Xposition Yposition Zposition Zrotation Yrotation Xrotation 
	JOINT LHipJoint
	{
		OFFSET 0.000000 0.000000 0.000000
		CHANNELS 3 Zrotation Yrotation Xrotation
		JOINT LeftUpLeg
		{
			OFFSET 1.800000 -1.400000 0.085000
			CHANNELS 3 Zrotation Yrotation Xrotation
			JOINT LeftLeg
			{
				OFFSET 2.215000 -6.000000 0.000000
				CHANNELS 3 Zrotation Yrotation Xrotation
				JOINT LeftFoot
				{
					OFFSET 2.500000 -6.900000 0.000000
					CHANNELS 3 Zrotation Yrotation Xrotation
					JOINT LeftToeBase
					{
						OFFSET 0.200000 -0.500000 1.950000
						CHANNELS 3 Zrotation Yrotation Xrotation
						End Site
						{
							OFFSET 0.000000 0.000000 0.000000
						}
					}
				}
			}
		}
	}
	JOINT RHipJoint
	{
		OFFSET 0.000000 0.000000 0.000000
		CHANNELS 3 Zrotation Yrotation Xrotation
		JOINT RightUpLeg
		{
			OFFSET -1.800000 -1.400000 0.085000
			CHANNELS 3 Zrotation Yrotation Xrotation
			JOINT RightLeg
			{
				OFFSET -2.215000 -6.000000 0.000000
				CHANNELS 3 Zrotation Yrotation Xrotation
				JOINT RightFoot
				{
					OFFSET -2.500000 -6.900000 0.000000
					CHANNELS 3 Zrotation Yrotation Xrotation
					JOINT RightToeBase
					{
						OFFSET -0.200000 -0.500000 1.950000
						CHANNELS 3 Zrotation Yrotation Xrotation
						End Site
						{
							OFFSET 0.000000 0.000000 0.000000
						}
					}
				}
			}
		}
	}
	JOINT LowerBack
	{
		OFFSET 0.000000 0.000000 0.000000
		CHANNELS 3 Zrotation Yrotation Xrotation
		JOINT Spine
		{
			OFFSET -0.087000 1.940000 -0.288900
			CHANNELS 3 Zrotation Yrotation Xrotation
			JOINT Spine1
			{
				OFFSET 0.000000 1.950000 0.060000
				CHANNELS 3 Zrotation Yrotation Xrotation
				JOINT Neck
				{
					OFFSET 0.000000 0.000000 0.000000
					CHANNELS 3 Zrotation Yrotation Xrotation
					JOINT Neck1
					{
						OFFSET 0.000000 1.600000 0.340000
						CHANNELS 3 Zrotation Yrotation Xrotation
						JOINT Head
						{
							OFFSET 0.000000 1.667000 -0.240000
							CHANNELS 3 Zrotation Yrotation Xrotation
							End Site
							{
								OFFSET 0.000000 0.000000 0.000000
							}
						}
					}
				}
				JOINT LeftShoulder
				{
					OFFSET 0.000000 0.000000 0.000000
					CHANNELS 3 Zrotation Yrotation Xrotation
					JOINT LeftArm
					{
						OFFSET 2.700000 1.550000 -0.730000
						CHANNELS 3 Zrotation Yrotation Xrotation
						JOINT LeftForeArm
						{
							OFFSET 5.450000 0.000000 0.000000
							CHANNELS 3 Zrotation Yrotation Xrotation
							JOINT LeftHand
							{
								OFFSET 3.450000 0.000000 0.000000
								CHANNELS 3 Zrotation Yrotation Xrotation
								JOINT LeftHandIndex1
								{
									OFFSET 0.750000 0.000000 0.000000
									CHANNELS 3 Zrotation Yrotation Xrotation
									End Site
									{
										OFFSET 0.000000 0.000000 0.000000
									}
								}
							}
						}
					}
				}
				JOINT RightShoulder
				{
					OFFSET 0.000000 0.000000 0.000000
					CHANNELS 3 Zrotation Yrotation Xrotation
					JOINT RightArm
					{
						OFFSET -2.700000 1.550000 -0.730000
						CHANNELS 3 Zrotation Yrotation Xrotation
						JOINT RightForeArm
						{
							OFFSET -5.450000 0.000000 0.000000
							CHANNELS 3 Zrotation Yrotation Xrotation
							JOINT RightHand
							{
								OFFSET -3.450000 0.000000 0.000000
								CHANNELS 3 Zrotation Yrotation Xrotation
								JOINT RightHandIndex1
								{
									OFFSET -0.750000 0.000000 0.000000
									CHANNELS 3 Zrotation Yrotation Xrotation
									End Site
									{
										OFFSET 0.000000 0.000000 0.000000
									}
								}
							}
						}
					}
				}
			}
		}
	}
}
MOTION
Frames: 6
Frame Time: 0.016667
-6.426420 17.183210 -0.619120 -176.691924 80.194488 -169.581776 -14.644406 10.655747 5.200974 -14.771393 -7.859736 -34.262760 -2.807192 1.914735 4.008113 -0.484501 0.630356 4.027135 0.139880 -0.346670 0.766710 18.574320 -12.099232 4.514256 5.879101 -3.468230 8.834368 6.665593 -4.820871 -1.937784 -0.807286 -4.198942 2.718981 -0.422260 -0.707350 -0.135060 -4.558025 4.641105 -9.047652 7.687283 12.890884 2.250075 0.105860 13.636755 -22.974221 -6.335728 -5.537527 -16.816870 3.003389 -10.282461 80.286392 4.661830 -9.589380 5.237280 -1.933509 19.413945 5.944174 -68.904450 28.315526 -14.158062 -2.834469 -54.976908 3.356049 -2.516732 2.925205 0.870550 -0.680970 0.437790 -0.352040 7.475490 -2.198257 7.661918 73.558261 -8.869070 -7.438749 -14.408546 15.283819 -1.459452 3.054568 -0.839956 -0.069250 -0.238080 -0.162160 -0.358900 
-6.249220 17.216240 -0.622210 174.304892 77.267303 -177.726043 -15.021629 10.478829 5.171657 -15.525279 -8.059578 -32.466433 -4.204767 2.079852 3.667373 -0.434455 0.695324 3.998950 0.132790 -0.349760 0.756200 18.234271 -12.217994 4.384119 6.044858 -3.505655 8.108377 5.819254 -4.863535 -0.595038 -0.772973 -4.139643 2.747869 -0.438750 -0.724480 -0.135020 -4.791548 5.002963 -8.892519 4.277129 11.700367 0.263920 0.641651 11.755009 -23.311533 -6.233154 -4.915001 -16.793911 3.640496 -10.737316 79.744243 4.169770 -9.955350 6.872730 -0.922376 18.904180 6.128852 -69.969031 28.905796 -15.412076 -1.117601 -46.878674 2.048428 -2.618066 2.699764 0.853330 -0.683080 0.440530 -0.350910 6.651418 -3.407784 7.448376 75.096941 -10.815273 -7.589915 -10.561610 12.323922 -0.566834 3.116135 -0.788200 -0.047580 -0.264170 -0.171360 -0.350530 
-6.080000 17.249220 -0.638180 171.881961 69.587979 -179.098225 -14.980041 10.404110 5.193174 -17.543723 -8.024184 -28.681620 -6.394696 2.078238 0.582164 -0.359274 0.834439 3.944858 0.113100 -0.375280 0.762500 18.323097 -12.283720 4.208802 8.365013 -3.736348 4.930990 4.195366 -4.715494 2.939917 -0.675744 -3.793846 2.859435 -0.475760 -0.760690 -0.116930 -4.658153 5.205125 -8.915796 0.980757 8.867613 -0.824823 0.024354 8.292883 -24.325237 -6.237157 -3.547543 -16.950009 6.320372 -12.622441 78.090641 3.568650 -10.652310 8.692340 0.058357 17.960210 6.275914 -70.383789 28.627753 -15.525335 1.093421 -39.429689 0.984276 -2.756096 2.510620 0.837300 -0.682970 0.452130 -0.375210 5.522958 -5.048140 7.610861 78.068023 -14.130024 -9.224497 -8.717128 11.878634 -0.233003 3.148743 -0.732549 -0.013550 -0.317960 -0.173330 -0.353080 
-5.919930 17.272860 -0.658810 170.894956 63.403290 -178.925202 -14.896509 10.387190 5.153392 -18.781040 -7.246006 -24.300866 -8.723900 1.791348 -4.512846 -0.277375 1.158492 3.848953 0.058470 -0.461410 0.757370 18.440066 -12.367956 4.023751 10.298768 -3.244603 0.800539 2.589305 -4.443561 7.601754 -0.546737 -3.450419 2.966000 -0.526130 -0.773650 -0.110710 -4.565855 5.409568 -8.916435 -1.352303 6.790328 -1.655747 -0.981069 5.697468 -25.315118 -6.208194 -2.111636 -16.906673 8.837880 -14.703389 75.195833 1.202220 -11.268850 11.431080 0.514937 17.444092 6.168537 -69.765671 28.612903 -15.214331 2.116891 -33.296148 0.497468 -2.884673 2.377123 0.830250 -0.672670 0.434870 -0.402750 4.594292 -6.667760 7.908622 80.935443 -17.559024 -11.135936 -7.670811 11.581396 -0.006967 3.171362 -0.671291 -0.021080 -0.349890 -0.150410 -0.368200 
-5.737580 17.302480 -0.688900 169.967191 58.938580 -179.101386 -14.876080 10.428988 5.066246 -18.365713 -6.047057 -19.757387 -12.416078 1.434403 -9.446121 -0.125128 1.695022 3.663801 0.070240 -0.468630 0.807240 18.482088 -12.401505 3.832506 10.445683 -2.377149 -2.392607 2.918025 -4.575618 11.858720 -0.503471 -3.297397 3.011187 -0.544110 -0.820570 -0.109880 -4.443584 5.462313 -8.852616 -3.812782 5.177231 -2.803343 -1.094163 3.764018 -25.923845 -6.156034 -1.384751 -17.033099 9.723681 -15.872524 75.336279 0.746430 -12.202430 12.112360 1.169705 17.651941 6.207719 -68.984046 29.115552 -15.167871 1.942585 -28.111736 0.259426 -2.945723 2.259428 0.856130 -0.697010 0.464330 -0.420500 3.970949 -8.593521 8.034990 82.321990 -20.945401 -12.809813 -5.857224 10.920192 0.266154 3.204142 -0.572991 -0.008890 -0.366110 -0.169980 -0.387340 
-5.579800 17.323360 -0.709150 170.184796 56.145285 -178.397963 -14.840216 10.515827 4.995656 -17.461162 -5.632818 -18.525681 -14.158950 1.500542 -9.755570 -0.069980 1.920152 3.585964 0.033930 -0.523360 0.797830 18.525107 -12.334776 3.790714 10.564609 -2.162412 -3.524562 3.560377 -4.658570 12.122269 -0.469937 -3.226962 3.037941 -0.581950 -0.829760 -0.101460 -4.345110 5.232598 -8.891793 -4.296784 4.013184 -3.201693 -1.652472 2.512349 -26.539605 -5.834172 -0.794045 -17.068665 9.727312 -16.171787 74.023574 -0.865230 -12.377240 13.343470 1.608520 18.092895 5.966612 -68.501471 29.608031 -15.177260 1.937458 -23.047367 -0.062317 -3.041724 2.163401 0.855430 -0.691490 0.455260 -0.441310 2.881065 -10.060008 8.337728 83.460488 -23.345357 -14.220339 -4.112815 10.907502 0.394652 3.218248 -0.497072 -0.007690 -0.389260 -0.150510 -0.395510 
